mtllib material.mtl
usemtl Black
v 0.10329000 0.03780300 0.00000000
v 0.10329000 0.01168200 0.03595300
v 0.10329100 -0.03058300 0.02222000
v 0.10329100 -0.03058300 -0.02222000
v 0.10329000 0.01168200 -0.03595300
v 0.05664200 -0.09164800 -0.02214500
v 0.01883900 -0.09886800 -0.04436500
v 0.01883900 -0.07274600 -0.08031800
v 0.05664200 -0.04938200 -0.08031800
v 0.08000600 -0.06106400 -0.04436500
v 0.08000600 0.02332400 -0.07178500
v 0.05664200 -0.00726000 -0.09400500
v 0.01883900 0.01164200 -0.10773800
v 0.01883900 0.05390800 -0.09400600
v 0.05664200 0.06112700 -0.07178500
v 0.08000500 0.07548000 0.00000000
v 0.05664200 0.08716100 -0.03595300
v 0.01883900 0.10606300 -0.02222000
v 0.01883900 0.10606300 0.02222000
v 0.05664200 0.08716100 0.03595300
v 0.08000600 0.02332400 0.07178500
v 0.05664200 0.06112700 0.07178500
v 0.01883900 0.05390800 0.09400600
v 0.01883900 0.01164200 0.10773800
v 0.05664200 -0.00726000 0.09400500
v 0.05664200 -0.09164800 0.02214500
v 0.08000600 -0.06106400 0.04436500
v 0.05664200 -0.04938200 0.08031800
v 0.01883900 -0.07274600 0.08031800
v 0.01883900 -0.09886800 0.04436500
v -0.01883900 -0.01164200 -0.10773800
v -0.01883900 -0.05390800 -0.09400600
v -0.05664200 -0.06112700 -0.07178500
v -0.08000600 -0.02332400 -0.07178500
v -0.05664200 0.00726000 -0.09400500
v -0.01883900 0.09886800 -0.04436500
v -0.01883900 0.07274600 -0.08031800
v -0.05664200 0.04938200 -0.08031800
v -0.08000600 0.06106400 -0.04436500
v -0.05664200 0.09164800 -0.02214500
v -0.01883900 0.07274600 0.08031800
v -0.01883900 0.09886800 0.04436500
v -0.05664200 0.09164800 0.02214500
v -0.08000600 0.06106400 0.04436500
v -0.05664200 0.04938200 0.08031800
v -0.01883900 -0.05390800 0.09400600
v -0.01883900 -0.01164200 0.10773800
v -0.05664200 0.00726000 0.09400500
v -0.08000600 -0.02332400 0.07178500
v -0.05664200 -0.06112700 0.07178500
v -0.01883900 -0.10606300 -0.02222000
v -0.01883900 -0.10606300 0.02222000
v -0.05664200 -0.08716100 0.03595300
v -0.08000500 -0.07548000 0.00000000
v -0.05664200 -0.08716100 -0.03595300
v -0.10329000 -0.01168200 -0.03595300
v -0.10329000 -0.03780300 0.00000000
v -0.10329000 -0.01168200 0.03595300
v -0.10329100 0.03058300 0.02222000
v -0.10329100 0.03058300 -0.02222000
v 0.10999100 -0.00000000 0.00000000
v 0.04920000 -0.07957600 -0.05783600
v 0.04919200 0.03038900 -0.09356600
v 0.04920500 0.09837100 0.00000000
v 0.04919200 0.03038900 0.09356600
v 0.04920000 -0.07957600 0.05783600
v -0.04919200 -0.03038900 -0.09356600
v -0.04920000 0.07957600 -0.05783600
v -0.04920000 0.07957600 0.05783600
v -0.04919200 -0.03038900 0.09356600
v -0.04920500 -0.09837100 0.00000000
v -0.10999100 0.00000000 0.00000000
v 0.10521700 0.02076900 0.02441500
v 0.10521700 0.02963800 0.01220800
v 0.10521700 -0.01680300 0.02729700
v 0.10521700 -0.00245200 0.03196000
v 0.10521700 -0.03115400 -0.00754500
v 0.10521700 -0.03115400 0.00754500
v 0.10521700 -0.00245200 -0.03196000
v 0.10521700 -0.01680300 -0.02729700
v 0.10521700 0.02963800 -0.01220800
v 0.10521700 0.02076900 -0.02441500
v 0.03202600 -0.09826000 -0.03764800
v 0.04486200 -0.09580800 -0.03010300
v 0.01919000 -0.08297200 -0.06960800
v 0.01919000 -0.09184200 -0.05740000
v 0.04486200 -0.05823700 -0.08181600
v 0.03202600 -0.06617000 -0.08181600
v 0.07356500 -0.05823600 -0.05740000
v 0.06563100 -0.05427000 -0.06960800
v 0.06563100 -0.08297200 -0.03010300
v 0.07356500 -0.07258700 -0.03764700
v 0.06563200 0.00299000 -0.08821300
v 0.07356500 0.01337400 -0.08066800
v 0.03202600 0.00544100 -0.10508400
v 0.04486200 -0.00097700 -0.10042100
v 0.01919000 0.04056200 -0.10042100
v 0.01919000 0.02621100 -0.10508400
v 0.04486200 0.05981600 -0.08066900
v 0.03202600 0.05736400 -0.08821400
v 0.07356500 0.03659500 -0.07312400
v 0.06563100 0.04943100 -0.07312400
v 0.06563100 0.08482000 -0.02441500
v 0.07356400 0.08085400 -0.01220800
v 0.03202600 0.10162300 -0.02729700
v 0.04486200 0.09520500 -0.03196000
v 0.01919000 0.10804100 0.00754500
v 0.01919000 0.10804100 -0.00754500
v 0.04486200 0.09520500 0.03196000
v 0.03202600 0.10162300 0.02729700
v 0.07356400 0.08085400 0.01220800
v 0.06563100 0.08482000 0.02441500
v 0.06563100 0.04943100 0.07312400
v 0.07356500 0.03659500 0.07312400
v 0.03202600 0.05736400 0.08821400
v 0.04486200 0.05981600 0.08066900
v 0.01919000 0.02621100 0.10508400
v 0.01919000 0.04056200 0.10042100
v 0.04486200 -0.00097700 0.10042100
v 0.03202600 0.00544100 0.10508400
v 0.07356500 0.01337400 0.08066800
v 0.06563200 0.00299000 0.08821300
v 0.07356500 -0.07258700 0.03764700
v 0.06563100 -0.08297200 0.03010300
v 0.06563100 -0.05427000 0.06960800
v 0.07356500 -0.05823600 0.05740000
v 0.03202600 -0.06617000 0.08181600
v 0.04486200 -0.05823700 0.08181600
v 0.01919000 -0.09184200 0.05740000
v 0.01919000 -0.08297200 0.06960800
v 0.04486200 -0.09580800 0.03010300
v 0.03202600 -0.09826000 0.03764800
v -0.01919000 -0.04056200 -0.10042100
v -0.01919000 -0.02621100 -0.10508400
v -0.04486200 -0.05981600 -0.08066900
v -0.03202600 -0.05736400 -0.08821400
v -0.07356500 -0.03659500 -0.07312400
v -0.06563100 -0.04943100 -0.07312400
v -0.06563200 -0.00299000 -0.08821300
v -0.07356500 -0.01337400 -0.08066800
v -0.03202600 -0.00544100 -0.10508400
v -0.04486200 0.00097700 -0.10042100
v -0.01919000 0.08297200 -0.06960800
v -0.01919000 0.09184200 -0.05740000
v -0.04486200 0.05823700 -0.08181600
v -0.03202600 0.06617000 -0.08181600
v -0.07356500 0.05823600 -0.05740000
v -0.06563100 0.05427000 -0.06960800
v -0.06563100 0.08297200 -0.03010300
v -0.07356500 0.07258700 -0.03764700
v -0.03202600 0.09826000 -0.03764800
v -0.04486200 0.09580800 -0.03010300
v -0.01919000 0.09184200 0.05740000
v -0.01919000 0.08297200 0.06960800
v -0.04486200 0.09580800 0.03010300
v -0.03202600 0.09826000 0.03764800
v -0.07356500 0.07258700 0.03764700
v -0.06563100 0.08297200 0.03010300
v -0.06563100 0.05427000 0.06960800
v -0.07356500 0.05823600 0.05740000
v -0.03202600 0.06617000 0.08181600
v -0.04486200 0.05823700 0.08181600
v -0.01919000 -0.02621100 0.10508400
v -0.01919000 -0.04056200 0.10042100
v -0.04486200 0.00097700 0.10042100
v -0.03202600 -0.00544100 0.10508400
v -0.07356500 -0.01337400 0.08066800
v -0.06563200 -0.00299000 0.08821300
v -0.06563100 -0.04943100 0.07312400
v -0.07356500 -0.03659500 0.07312400
v -0.03202600 -0.05736400 0.08821400
v -0.04486200 -0.05981600 0.08066900
v -0.01919000 -0.10804100 0.00754500
v -0.01919000 -0.10804100 -0.00754500
v -0.04486200 -0.09520500 0.03196000
v -0.03202600 -0.10162300 0.02729700
v -0.07356400 -0.08085400 0.01220800
v -0.06563100 -0.08482000 0.02441500
v -0.06563100 -0.08482000 -0.02441500
v -0.07356400 -0.08085400 -0.01220800
v -0.03202600 -0.10162300 -0.02729700
v -0.04486200 -0.09520500 -0.03196000
v -0.10521700 -0.02963800 -0.01220800
v -0.10521700 -0.02076900 -0.02441500
v -0.10521700 -0.02076900 0.02441500
v -0.10521700 -0.02963800 0.01220800
v -0.10521700 0.01680300 0.02729700
v -0.10521700 0.00245200 0.03196000
v -0.10521700 0.03115400 -0.00754500
v -0.10521700 0.03115400 0.00754500
v -0.10521700 0.00245200 -0.03196000
v -0.10521700 0.01680300 -0.02729700
v 0.10918200 0.01331500 0.00000000
v 0.10685800 0.02606300 0.00000000
v 0.10685600 0.00805300 0.02479600
v 0.10918100 0.00411400 0.01266800
v 0.10685800 -0.02108500 0.01532500
v 0.10918200 -0.01077200 0.00782900
v 0.10685800 -0.02108500 -0.01532500
v 0.10918200 -0.01077200 -0.00782900
v 0.10685600 0.00805300 -0.02479600
v 0.10918100 0.00411400 -0.01266800
v 0.05252200 -0.08494800 -0.04607900
v 0.05500800 -0.08897000 -0.03400700
v 0.02893000 -0.09395100 -0.04933700
v 0.03919900 -0.08749300 -0.05391100
v 0.02892800 -0.07593100 -0.07413300
v 0.03919800 -0.07828700 -0.06657900
v 0.05500100 -0.05981600 -0.07412800
v 0.05251800 -0.07005300 -0.06657600
v 0.07111800 -0.06787300 -0.04933100
v 0.06075200 -0.07417000 -0.05390700
v 0.06074300 0.02832600 -0.08721200
v 0.07110900 0.02592100 -0.07980900
v 0.05499500 0.00483600 -0.09513300
v 0.05251000 0.01755300 -0.09504000
v 0.02892200 0.01786800 -0.10460500
v 0.03919100 0.02421100 -0.09987900
v 0.02892400 0.04700900 -0.09514000
v 0.03919200 0.03909900 -0.09504400
v 0.05499900 0.05198800 -0.07981500
v 0.05251300 0.04164200 -0.08721400
v 0.06075700 0.09168700 0.00000000
v 0.07112300 0.08390200 0.00000000
v 0.05500900 0.09196100 -0.02480200
v 0.05252400 0.09580500 -0.01267100
v 0.02893200 0.10500400 -0.01533000
v 0.03920200 0.10246900 -0.00783200
v 0.02893200 0.10500400 0.01533000
v 0.03920200 0.10246900 0.00783200
v 0.05500900 0.09196100 0.02480200
v 0.05252400 0.09580500 0.01267100
v 0.06074300 0.02832600 0.08721200
v 0.07110900 0.02592100 0.07980900
v 0.05499900 0.05198800 0.07981500
v 0.05251300 0.04164200 0.08721400
v 0.02892400 0.04700900 0.09514000
v 0.03919200 0.03909900 0.09504400
v 0.02892200 0.01786800 0.10460500
v 0.03919100 0.02421100 0.09987900
v 0.05499500 0.00483600 0.09513300
v 0.05251000 0.01755300 0.09504000
v 0.05252200 -0.08494800 0.04607900
v 0.05500800 -0.08897000 0.03400700
v 0.07111800 -0.06787300 0.04933100
v 0.06075200 -0.07417000 0.05390700
v 0.05500100 -0.05981600 0.07412800
v 0.05251800 -0.07005300 0.06657600
v 0.02892800 -0.07593100 0.07413300
v 0.03919800 -0.07828700 0.06657900
v 0.02893000 -0.09395100 0.04933700
v 0.03919900 -0.08749300 0.05391100
v -0.03919100 -0.02421100 -0.09987900
v -0.02892200 -0.01786800 -0.10460500
v -0.02892400 -0.04700900 -0.09514000
v -0.03919200 -0.03909900 -0.09504400
v -0.05499900 -0.05198800 -0.07981500
v -0.05251300 -0.04164200 -0.08721400
v -0.07110900 -0.02592100 -0.07980900
v -0.06074300 -0.02832600 -0.08721200
v -0.05499500 -0.00483600 -0.09513300
v -0.05251000 -0.01755300 -0.09504000
v -0.03919900 0.08749300 -0.05391100
v -0.02893000 0.09395100 -0.04933700
v -0.02892800 0.07593100 -0.07413300
v -0.03919800 0.07828700 -0.06657900
v -0.05500100 0.05981600 -0.07412800
v -0.05251800 0.07005300 -0.06657600
v -0.07111800 0.06787300 -0.04933100
v -0.06075200 0.07417000 -0.05390700
v -0.05500800 0.08897000 -0.03400700
v -0.05252200 0.08494800 -0.04607900
v -0.03919800 0.07828700 0.06657900
v -0.02892800 0.07593100 0.07413300
v -0.02893000 0.09395100 0.04933700
v -0.03919900 0.08749300 0.05391100
v -0.05500800 0.08897000 0.03400700
v -0.05252200 0.08494800 0.04607900
v -0.07111800 0.06787300 0.04933100
v -0.06075200 0.07417000 0.05390700
v -0.05500100 0.05981600 0.07412800
v -0.05251800 0.07005300 0.06657600
v -0.03919200 -0.03909900 0.09504400
v -0.02892400 -0.04700900 0.09514000
v -0.02892200 -0.01786800 0.10460500
v -0.03919100 -0.02421100 0.09987900
v -0.05499500 -0.00483600 0.09513300
v -0.05251000 -0.01755300 0.09504000
v -0.07110900 -0.02592100 0.07980900
v -0.06074300 -0.02832600 0.08721200
v -0.05499900 -0.05198800 0.07981500
v -0.05251300 -0.04164200 0.08721400
v -0.03920200 -0.10246900 -0.00783200
v -0.02893200 -0.10500400 -0.01533000
v -0.02893200 -0.10500400 0.01533000
v -0.03920200 -0.10246900 0.00783200
v -0.05500900 -0.09196100 0.02480200
v -0.05252400 -0.09580500 0.01267100
v -0.07112300 -0.08390200 0.00000000
v -0.06075700 -0.09168700 0.00000000
v -0.05500900 -0.09196100 -0.02480200
v -0.05252400 -0.09580500 -0.01267100
v -0.10918100 -0.00411400 -0.01266800
v -0.10685600 -0.00805300 -0.02479600
v -0.10685800 -0.02606300 0.00000000
v -0.10918200 -0.01331500 0.00000000
v -0.10685600 -0.00805300 0.02479600
v -0.10918100 -0.00411400 0.01266800
v -0.10685800 0.02108500 0.01532500
v -0.10918200 0.01077200 0.00782900
v -0.10685800 0.02108500 -0.01532500
v -0.10918200 0.01077200 -0.00782900
v -0.10790900 0.00658000 -0.02025800
v -0.10791000 0.02129300 0.00000000
v -0.10790900 0.00658000 0.02025800
v -0.10791000 -0.01722600 0.01252000
v -0.04238400 -0.09945300 -0.02026400
v -0.06368800 -0.08879800 -0.01252300
v -0.06368800 -0.08879800 0.01252300
v -0.04238400 -0.09945300 0.02026400
v -0.04237500 -0.04998600 0.08833900
v -0.06367500 -0.03933800 0.08059800
v -0.06367300 -0.01553000 0.08833200
v -0.04237200 -0.01146300 0.10085200
v -0.04237800 0.06854200 0.07486100
v -0.06368100 0.06447300 0.06233800
v -0.06368500 0.07919300 0.04208000
v -0.04238300 0.09236200 0.04208300
v -0.04238300 0.09236200 -0.04208300
v -0.06368500 0.07919300 -0.04208000
v -0.06368100 0.06447300 -0.06233800
v -0.04237800 0.06854200 -0.07486100
v -0.04237200 -0.01146300 -0.10085200
v -0.06367300 -0.01553000 -0.08833200
v -0.06367500 -0.03933800 -0.08059800
v -0.04237500 -0.04998600 -0.08833900
v 0.04238300 -0.09236200 0.04208300
v 0.02921400 -0.08577700 0.06234400
v 0.04237800 -0.06854200 0.07486100
v 0.06368100 -0.06447300 0.06233800
v 0.06367300 0.01553000 0.08833200
v 0.04237200 0.01146300 0.10085200
v 0.02920800 0.03275700 0.10085600
v 0.04237500 0.04998600 0.08833900
v 0.06368800 0.08879800 0.01252300
v 0.04238400 0.09945300 0.02026400
v 0.02921700 0.10603900 0.00000000
v 0.04238400 0.09945300 -0.02026400
v 0.06367500 0.03933800 -0.08059800
v 0.04237500 0.04998600 -0.08833900
v 0.02920800 0.03275700 -0.10085600
v 0.04237200 0.01146300 -0.10085200
v 0.06368500 -0.07919300 -0.04208000
v 0.06368100 -0.06447300 -0.06233800
v 0.04237800 -0.06854200 -0.07486100
v 0.02921400 -0.08577700 -0.06234400
v 0.10791000 0.01722600 -0.01252000
v 0.10790900 -0.00658000 -0.02025800
v 0.10791000 -0.02129300 0.00000000
v 0.10790900 -0.00658000 0.02025800
v -0.10791000 -0.01722600 -0.01252000
v -0.02921700 -0.10603900 0.00000000
v -0.02920800 -0.03275700 0.10085600
v -0.02921400 0.08577700 0.06234400
v -0.02921400 0.08577700 -0.06234400
v -0.02920800 -0.03275700 -0.10085600
v 0.06368500 -0.07919300 0.04208000
v 0.06367500 0.03933800 0.08059800
v 0.06368800 0.08879800 -0.01252300
v 0.06367300 0.01553000 -0.08833200
v 0.04238300 -0.09236200 -0.04208300
v 0.10791000 0.01722600 0.01252000
vn 0.30050000 0.95380000 -0.00000000
vn 0.30040000 0.29470000 0.90710000
vn 0.30050000 -0.77160000 0.56060000
vn 0.30050000 -0.77170000 -0.56060000
vn 0.30040000 0.29470000 -0.90710000
vn 0.39800000 -0.64390000 0.65340000
vn -0.55580000 -0.82610000 0.09280000
vn -0.55580000 -0.16710000 -0.81430000
vn 0.39810000 0.42240000 -0.81430000
vn 0.98750000 0.12770000 0.09280000
vn 0.98750000 -0.04880000 0.15010000
vn 0.39800000 -0.82040000 -0.41050000
vn -0.55580000 -0.34350000 -0.75700000
vn -0.55580000 0.72290000 -0.41050000
vn 0.39800000 0.90500000 0.15010000
vn 0.98750000 -0.15780000 -0.00000000
vn 0.39800000 0.13690000 -0.90710000
vn -0.55580000 0.61380000 -0.56070000
vn -0.55580000 0.61380000 0.56060000
vn 0.39800000 0.13690000 0.90710000
vn 0.98750000 -0.04880000 -0.15010000
vn 0.39800000 0.90500000 -0.15010000
vn -0.55580000 0.72290000 0.41050000
vn -0.55580000 -0.34350000 0.75700000
vn 0.39800000 -0.82040000 0.41050000
vn 0.39800000 -0.64400000 -0.65340000
vn 0.98750000 0.12770000 -0.09280000
vn 0.39800000 0.42240000 0.81430000
vn -0.55580000 -0.16710000 0.81430000
vn -0.55580000 -0.82610000 -0.09290000
vn 0.55580000 0.34350000 -0.75700000
vn 0.55580000 -0.72290000 -0.41050000
vn -0.39800000 -0.90500000 0.15010000
vn -0.98750000 0.04880000 0.15010000
vn -0.39800000 0.82040000 -0.41050000
vn 0.55580000 0.82610000 0.09280000
vn 0.55580000 0.16710000 -0.81430000
vn -0.39800000 -0.42240000 -0.81440000
vn -0.98750000 -0.12770000 0.09280000
vn -0.39800000 0.64390000 0.65340000
vn 0.55580000 0.16710000 0.81430000
vn 0.55580000 0.82610000 -0.09290000
vn -0.39800000 0.64400000 -0.65340000
vn -0.98750000 -0.12770000 -0.09280000
vn -0.39800000 -0.42240000 0.81430000
vn 0.55580000 -0.72290000 0.41050000
vn 0.55580000 0.34350000 0.75700000
vn -0.39800000 0.82040000 0.41050000
vn -0.98750000 0.04880000 -0.15010000
vn -0.39800000 -0.90500000 -0.15010000
vn 0.55580000 -0.61380000 -0.56070000
vn 0.55580000 -0.61380000 0.56060000
vn -0.39800000 -0.13690000 0.90710000
vn -0.98750000 0.15780000 -0.00000000
vn -0.39800000 -0.13690000 -0.90710000
vn -0.30040000 -0.29470000 -0.90710000
vn -0.30050000 -0.95380000 -0.00000000
vn -0.30040000 -0.29470000 0.90710000
vn -0.30050000 0.77160000 0.56060000
vn -0.30050000 0.77170000 -0.56060000
vn 1.00000000 -0.00000000 -0.00000000
vn 0.44730000 -0.72350000 -0.52580000
vn 0.44720000 0.27630000 -0.85070000
vn 0.44740000 0.89440000 -0.00000000
vn 0.44720000 0.27630000 0.85070000
vn 0.44730000 -0.72350000 0.52580000
vn -0.44720000 -0.27630000 -0.85070000
vn -0.44730000 0.72350000 -0.52580000
vn -0.44730000 0.72350000 0.52580000
vn -0.44720000 -0.27630000 0.85070000
vn -0.44740000 -0.89440000 -0.00000000
vn -1.00000000 -0.00000000 -0.00000000
vn 0.57430000 0.63380000 0.51820000
vn 0.57430000 0.68870000 0.44260000
vn 0.57420000 -0.29700000 0.76290000
vn 0.57430000 -0.20820000 0.79170000
vn 0.57430000 -0.81730000 -0.04670000
vn 0.57430000 -0.81730000 0.04670000
vn 0.57430000 -0.20820000 -0.79170000
vn 0.57420000 -0.29700000 -0.76290000
vn 0.57430000 0.68870000 -0.44260000
vn 0.57430000 0.63380000 -0.51820000
vn -0.00870000 -0.97140000 0.23720000
vn 0.07070000 -0.95630000 0.28380000
vn -0.47420000 -0.68380000 -0.55460000
vn -0.47420000 -0.73870000 -0.47900000
vn 0.07070000 -0.02550000 -0.99720000
vn -0.00880000 -0.07450000 -0.99720000
vn 0.87280000 0.09380000 -0.47900000
vn 0.82370000 0.11830000 -0.55450000
vn 0.82370000 -0.49080000 0.28400000
vn 0.87280000 -0.42660000 0.23720000
vn 0.82370000 -0.42170000 -0.37910000
vn 0.87280000 -0.35740000 -0.33240000
vn -0.00880000 -0.52580000 -0.85050000
vn 0.07070000 -0.56550000 -0.82170000
vn -0.47430000 0.31610000 -0.82170000
vn -0.47420000 0.22730000 -0.85060000
vn 0.07070000 0.94050000 -0.33240000
vn -0.00870000 0.92530000 -0.37910000
vn 0.87280000 0.48450000 -0.05890000
vn 0.82370000 0.56390000 -0.05880000
vn 0.82370000 0.23020000 -0.51820000
vn 0.87280000 0.20570000 -0.44260000
vn -0.00870000 0.64650000 -0.76290000
vn 0.07070000 0.60680000 -0.79170000
vn -0.47420000 0.87920000 0.04670000
vn -0.47420000 0.87920000 -0.04670000
vn 0.07070000 0.60680000 0.79170000
vn -0.00870000 0.64650000 0.76290000
vn 0.87280000 0.20570000 0.44260000
vn 0.82370000 0.23020000 0.51820000
vn 0.82370000 0.56390000 0.05880000
vn 0.87280000 0.48450000 0.05890000
vn -0.00870000 0.92530000 0.37910000
vn 0.07070000 0.94050000 0.33240000
vn -0.47420000 0.22730000 0.85060000
vn -0.47430000 0.31610000 0.82170000
vn 0.07070000 -0.56550000 0.82170000
vn -0.00880000 -0.52580000 0.85050000
vn 0.87280000 -0.35740000 0.33240000
vn 0.82370000 -0.42170000 0.37910000
vn 0.87280000 -0.42660000 -0.23720000
vn 0.82370000 -0.49080000 -0.28400000
vn 0.82370000 0.11830000 0.55450000
vn 0.87280000 0.09380000 0.47900000
vn -0.00880000 -0.07450000 0.99720000
vn 0.07070000 -0.02550000 0.99720000
vn -0.47420000 -0.73870000 0.47900000
vn -0.47420000 -0.68380000 0.55460000
vn 0.07070000 -0.95630000 -0.28380000
vn -0.00870000 -0.97140000 -0.23720000
vn 0.47430000 -0.31610000 -0.82170000
vn 0.47420000 -0.22730000 -0.85060000
vn -0.07070000 -0.94050000 -0.33240000
vn 0.00870000 -0.92530000 -0.37910000
vn -0.87280000 -0.48450000 -0.05890000
vn -0.82370000 -0.56390000 -0.05880000
vn -0.82370000 0.42170000 -0.37910000
vn -0.87280000 0.35740000 -0.33240000
vn 0.00880000 0.52580000 -0.85050000
vn -0.07070000 0.56550000 -0.82170000
vn 0.47420000 0.68380000 -0.55460000
vn 0.47420000 0.73870000 -0.47900000
vn -0.07070000 0.02550000 -0.99720000
vn 0.00880000 0.07450000 -0.99720000
vn -0.87280000 -0.09380000 -0.47900000
vn -0.82370000 -0.11830000 -0.55450000
vn -0.82370000 0.49080000 0.28400000
vn -0.87280000 0.42660000 0.23720000
vn 0.00880000 0.97140000 0.23710000
vn -0.07070000 0.95630000 0.28380000
vn 0.47420000 0.73870000 0.47900000
vn 0.47420000 0.68380000 0.55460000
vn -0.07070000 0.95630000 -0.28390000
vn 0.00870000 0.97140000 -0.23720000
vn -0.87280000 0.42660000 -0.23720000
vn -0.82370000 0.49080000 -0.28400000
vn -0.82370000 -0.11830000 0.55450000
vn -0.87280000 -0.09380000 0.47900000
vn 0.00880000 0.07450000 0.99720000
vn -0.07070000 0.02550000 0.99720000
vn 0.47420000 -0.22730000 0.85060000
vn 0.47430000 -0.31610000 0.82170000
vn -0.07070000 0.56550000 0.82170000
vn 0.00880000 0.52580000 0.85050000
vn -0.87280000 0.35740000 0.33240000
vn -0.82370000 0.42170000 0.37910000
vn -0.82370000 -0.56390000 0.05880000
vn -0.87280000 -0.48450000 0.05890000
vn 0.00870000 -0.92530000 0.37910000
vn -0.07070000 -0.94050000 0.33240000
vn 0.47420000 -0.87920000 0.04670000
vn 0.47420000 -0.87920000 -0.04670000
vn -0.07070000 -0.60680000 0.79170000
vn 0.00870000 -0.64650000 0.76290000
vn -0.87280000 -0.20570000 0.44260000
vn -0.82370000 -0.23020000 0.51820000
vn -0.82370000 -0.23020000 -0.51820000
vn -0.87280000 -0.20570000 -0.44260000
vn 0.00870000 -0.64650000 -0.76290000
vn -0.07070000 -0.60680000 -0.79170000
vn -0.57430000 -0.68870000 -0.44260000
vn -0.57430000 -0.63380000 -0.51820000
vn -0.57430000 -0.63380000 0.51820000
vn -0.57430000 -0.68870000 0.44260000
vn -0.57420000 0.29700000 0.76290000
vn -0.57430000 0.20820000 0.79170000
vn -0.57430000 0.81730000 -0.04670000
vn -0.57430000 0.81730000 0.04670000
vn -0.57430000 0.20820000 -0.79170000
vn -0.57420000 0.29700000 -0.76290000
vn 0.99290000 0.11930000 -0.00000000
vn 0.97210000 0.23460000 -0.00000000
vn 0.97210000 0.07250000 0.22310000
vn 0.99290000 0.03690000 0.11350000
vn 0.97210000 -0.18980000 0.13790000
vn 0.99290000 -0.09650000 0.07010000
vn 0.97210000 -0.18980000 -0.13790000
vn 0.99290000 -0.09650000 -0.07010000
vn 0.97210000 0.07250000 -0.22310000
vn 0.99290000 0.03690000 -0.11350000
vn 0.47710000 -0.77170000 -0.42050000
vn 0.49970000 -0.80820000 -0.31150000
vn 0.26500000 -0.85310000 -0.44950000
vn 0.35770000 -0.79450000 -0.49070000
vn 0.26500000 -0.69090000 -0.67260000
vn 0.35770000 -0.71200000 -0.60420000
vn 0.49960000 -0.54590000 -0.67260000
vn 0.47710000 -0.63820000 -0.60420000
vn 0.64470000 -0.61840000 -0.44940000
vn 0.55090000 -0.67510000 -0.49070000
vn 0.55080000 0.25780000 -0.79380000
vn 0.64460000 0.23620000 -0.72710000
vn 0.49960000 0.04640000 -0.86500000
vn 0.47700000 0.16130000 -0.86400000
vn 0.26500000 0.16370000 -0.95030000
vn 0.35770000 0.22100000 -0.90730000
vn 0.26500000 0.42600000 -0.86510000
vn 0.35770000 0.35440000 -0.86400000
vn 0.49960000 0.47080000 -0.72720000
vn 0.47700000 0.37710000 -0.79380000
vn 0.55090000 0.83460000 -0.00000000
vn 0.64470000 0.76440000 -0.00000000
vn 0.49970000 0.83700000 -0.22320000
vn 0.47710000 0.87150000 -0.11350000
vn 0.26500000 0.95430000 -0.13790000
vn 0.35780000 0.93120000 -0.07020000
vn 0.26500000 0.95430000 0.13790000
vn 0.35780000 0.93120000 0.07020000
vn 0.49970000 0.83700000 0.22320000
vn 0.47710000 0.87150000 0.11350000
vn 0.55080000 0.25780000 0.79380000
vn 0.64460000 0.23620000 0.72710000
vn 0.49960000 0.47080000 0.72720000
vn 0.47700000 0.37710000 0.79380000
vn 0.26500000 0.42600000 0.86510000
vn 0.35770000 0.35440000 0.86400000
vn 0.26500000 0.16370000 0.95030000
vn 0.35770000 0.22100000 0.90730000
vn 0.49960000 0.04640000 0.86500000
vn 0.47700000 0.16130000 0.86400000
vn 0.47710000 -0.77170000 0.42050000
vn 0.49970000 -0.80820000 0.31150000
vn 0.64470000 -0.61840000 0.44940000
vn 0.55090000 -0.67510000 0.49070000
vn 0.49960000 -0.54590000 0.67260000
vn 0.47710000 -0.63820000 0.60420000
vn 0.26500000 -0.69090000 0.67260000
vn 0.35770000 -0.71200000 0.60420000
vn 0.26500000 -0.85310000 0.44950000
vn 0.35770000 -0.79450000 0.49070000
vn -0.35770000 -0.22100000 -0.90730000
vn -0.26500000 -0.16370000 -0.95030000
vn -0.26500000 -0.42600000 -0.86510000
vn -0.35770000 -0.35440000 -0.86400000
vn -0.49960000 -0.47080000 -0.72720000
vn -0.47700000 -0.37710000 -0.79380000
vn -0.64460000 -0.23620000 -0.72710000
vn -0.55080000 -0.25780000 -0.79380000
vn -0.49960000 -0.04640000 -0.86500000
vn -0.47700000 -0.16130000 -0.86400000
vn -0.35770000 0.79450000 -0.49070000
vn -0.26500000 0.85310000 -0.44950000
vn -0.26500000 0.69090000 -0.67260000
vn -0.35770000 0.71200000 -0.60420000
vn -0.49960000 0.54590000 -0.67260000
vn -0.47710000 0.63820000 -0.60420000
vn -0.64470000 0.61840000 -0.44940000
vn -0.55090000 0.67510000 -0.49070000
vn -0.49970000 0.80820000 -0.31150000
vn -0.47710000 0.77170000 -0.42050000
vn -0.35770000 0.71200000 0.60420000
vn -0.26500000 0.69090000 0.67260000
vn -0.26500000 0.85310000 0.44950000
vn -0.35770000 0.79450000 0.49070000
vn -0.49970000 0.80820000 0.31150000
vn -0.47710000 0.77170000 0.42050000
vn -0.64470000 0.61840000 0.44940000
vn -0.55090000 0.67510000 0.49070000
vn -0.49960000 0.54590000 0.67260000
vn -0.47710000 0.63820000 0.60420000
vn -0.35770000 -0.35440000 0.86400000
vn -0.26500000 -0.42600000 0.86510000
vn -0.26500000 -0.16370000 0.95030000
vn -0.35770000 -0.22100000 0.90730000
vn -0.49960000 -0.04640000 0.86500000
vn -0.47700000 -0.16130000 0.86400000
vn -0.64460000 -0.23620000 0.72710000
vn -0.55080000 -0.25780000 0.79380000
vn -0.49960000 -0.47080000 0.72720000
vn -0.47700000 -0.37710000 0.79380000
vn -0.35780000 -0.93120000 -0.07020000
vn -0.26500000 -0.95430000 -0.13790000
vn -0.26500000 -0.95430000 0.13790000
vn -0.35780000 -0.93120000 0.07020000
vn -0.49970000 -0.83700000 0.22320000
vn -0.47710000 -0.87150000 0.11350000
vn -0.64470000 -0.76440000 -0.00000000
vn -0.55090000 -0.83460000 -0.00000000
vn -0.49970000 -0.83700000 -0.22320000
vn -0.47710000 -0.87150000 -0.11350000
vn -0.99290000 -0.03690000 -0.11350000
vn -0.97210000 -0.07250000 -0.22310000
vn -0.97210000 -0.23460000 -0.00000000
vn -0.99290000 -0.11930000 -0.00000000
vn -0.97210000 -0.07250000 0.22310000
vn -0.99290000 -0.03690000 0.11350000
vn -0.97210000 0.18980000 0.13790000
vn -0.99290000 0.09650000 0.07010000
vn -0.97210000 0.18980000 -0.13790000
vn -0.99290000 0.09650000 -0.07010000
vn -0.98130000 0.05940000 -0.18290000
vn -0.98130000 0.19230000 -0.00000000
vn -0.98130000 0.05940000 0.18290000
vn -0.98130000 -0.15550000 0.11310000
vn -0.38580000 -0.90420000 -0.18300000
vn -0.57820000 -0.80810000 -0.11310000
vn -0.57820000 -0.80810000 0.11310000
vn -0.38580000 -0.90420000 0.18300000
vn -0.38570000 -0.45330000 0.80360000
vn -0.57810000 -0.35710000 0.73370000
vn -0.57800000 -0.14220000 0.80350000
vn -0.38570000 -0.10540000 0.91660000
vn -0.38580000 0.62400000 0.67960000
vn -0.57810000 0.58720000 0.56650000
vn -0.57810000 0.72010000 0.38360000
vn -0.38580000 0.83900000 0.38360000
vn -0.38580000 0.83900000 -0.38360000
vn -0.57810000 0.72010000 -0.38360000
vn -0.57810000 0.58720000 -0.56650000
vn -0.38580000 0.62400000 -0.67960000
vn -0.38570000 -0.10540000 -0.91660000
vn -0.57800000 -0.14220000 -0.80350000
vn -0.57810000 -0.35710000 -0.73370000
vn -0.38570000 -0.45330000 -0.80360000
vn 0.38580000 -0.83900000 0.38360000
vn 0.26690000 -0.77960000 0.56660000
vn 0.38580000 -0.62400000 0.67960000
vn 0.57810000 -0.58720000 0.56650000
vn 0.57800000 0.14220000 0.80350000
vn 0.38570000 0.10540000 0.91660000
vn 0.26690000 0.29770000 0.91660000
vn 0.38570000 0.45330000 0.80360000
vn 0.57820000 0.80810000 0.11310000
vn 0.38580000 0.90420000 0.18300000
vn 0.26690000 0.96370000 -0.00000000
vn 0.38580000 0.90420000 -0.18300000
vn 0.57810000 0.35710000 -0.73370000
vn 0.38570000 0.45330000 -0.80360000
vn 0.26690000 0.29770000 -0.91660000
vn 0.38570000 0.10540000 -0.91660000
vn 0.57810000 -0.72010000 -0.38360000
vn 0.57810000 -0.58720000 -0.56650000
vn 0.38580000 -0.62400000 -0.67960000
vn 0.26690000 -0.77960000 -0.56660000
vn 0.98130000 0.15550000 -0.11310000
vn 0.98130000 -0.05940000 -0.18290000
vn 0.98130000 -0.19230000 -0.00000000
vn 0.98130000 -0.05940000 0.18290000
vn -0.98130000 -0.15550000 -0.11310000
vn -0.26690000 -0.96370000 -0.00000000
vn -0.26690000 -0.29770000 0.91660000
vn -0.26690000 0.77960000 0.56660000
vn -0.26690000 0.77960000 -0.56660000
vn -0.26690000 -0.29770000 -0.91660000
vn 0.57810000 -0.72010000 0.38360000
vn 0.57810000 0.35710000 0.73370000
vn 0.57820000 0.80810000 -0.11310000
vn 0.57800000 0.14220000 -0.80350000
vn 0.38580000 -0.83900000 -0.38360000
vn 0.98130000 0.15550000 0.11310000
vt 0.87857600 0.05285500
vt 0.69675700 0.05285500
vt 0.51494000 0.05285500
vt 0.33312200 0.05285500
vt 0.15130400 0.05285500
vt 0.33376000 0.15746100
vt 0.30324300 0.21031500
vt 0.24221300 0.21031500
vt 0.21169700 0.15746100
vt 0.24221300 0.10460600
vt 0.96948500 0.10460600
vt 0.15194100 0.15746100
vt 0.12142500 0.21031500
vt 0.06039500 0.21031500
vt 0.93896900 0.15746100
vt 0.78766700 0.10460600
vt 0.87921300 0.15746100
vt 0.84869700 0.21031500
vt 0.78766700 0.21031500
vt 0.75715100 0.15746100
vt 0.60584800 0.10460600
vt 0.69739500 0.15746100
vt 0.66687900 0.21031500
vt 0.60584900 0.21031500
vt 0.57533300 0.15746100
vt 0.39351400 0.15746100
vt 0.42403100 0.10460600
vt 0.51557700 0.15746100
vt 0.48506100 0.21031500
vt 0.42403100 0.21031500
vt 0.15130400 0.26206700
vt 0.21233400 0.26206700
vt 0.24285000 0.31492100
vt 0.21233400 0.36777600
vt 0.12078800 0.31492100
vt 0.87857600 0.26206700
vt 0.93960600 0.26206700
vt 0.06103100 0.31492100
vt 0.03051600 0.36777600
vt 0.84805900 0.31492100
vt 0.69675800 0.26206700
vt 0.75778800 0.26206700
vt 0.78830500 0.31492100
vt 0.75778800 0.36777600
vt 0.66624200 0.31492100
vt 0.51494000 0.26206700
vt 0.57597000 0.26206700
vt 0.60648600 0.31492100
vt 0.57597000 0.36777600
vt 0.48442400 0.31492100
vt 0.33312200 0.26206700
vt 0.39415200 0.26206700
vt 0.42466800 0.31492100
vt 0.39415200 0.36777600
vt 0.30260600 0.31492100
vt 0.12142500 0.41952700
vt 0.30324300 0.41952700
vt 0.48506100 0.41952700
vt 0.66687900 0.41952700
vt 0.84869700 0.41952700
vt 0.51494000 0.05285500
vt 0.26662500 0.16803200
vt 0.44844400 0.16803200
vt 0.81207900 0.16803200
vt 0.63026100 0.16803200
vt 0.44844300 0.16803200
vt 0.18792200 0.30435000
vt 0.55155800 0.30435000
vt 0.73337600 0.30435000
vt 0.55155800 0.30435000
vt 0.36974000 0.30435000
vt 0.48506100 0.41952700
vt 0.75736400 0.05285500
vt 0.81797000 0.05285500
vt 0.57554600 0.05285500
vt 0.63615200 0.05285500
vt 0.39372800 0.05285500
vt 0.45433400 0.05285500
vt 0.21191000 0.05285500
vt 0.27251600 0.05285500
vt 0.63615200 0.05285500
vt 0.39372800 0.05285500
vt 0.31341500 0.19269700
vt 0.32358700 0.17507900
vt 0.26255600 0.21031500
vt 0.28290000 0.21031500
vt 0.22186900 0.17507900
vt 0.23204100 0.19269700
vt 0.23204100 0.12222400
vt 0.22186900 0.13984300
vt 0.30324400 0.13984300
vt 0.27272800 0.12222400
vt 0.42445600 0.13984300
vt 0.69697000 0.12222400
vt 0.13159700 0.19269700
vt 0.14176900 0.17507900
vt 0.08073800 0.21031500
vt 0.10108200 0.21031500
vt 0.64611100 0.17507900
vt 0.35325300 0.19269700
vt 0.95931300 0.12222400
vt 0.94914100 0.13984300
vt 0.84869700 0.13984300
vt 0.81818200 0.12222500
vt 0.85886900 0.19269700
vt 0.86904100 0.17507900
vt 0.80801000 0.21031500
vt 0.82835400 0.21031500
vt 0.76732300 0.17507900
vt 0.77749500 0.19269700
vt 0.77749500 0.12222500
vt 0.76732300 0.13984300
vt 0.66687900 0.13984300
vt 0.63636400 0.12222400
vt 0.67705100 0.19269700
vt 0.68722300 0.17507900
vt 0.62619200 0.21031500
vt 0.64653600 0.21031500
vt 0.58550500 0.17507900
vt 0.59567700 0.19269700
vt 0.59567700 0.12222400
vt 0.58550500 0.13984300
vt 0.41385800 0.12222400
vt 0.40368600 0.13984300
vt 0.48506200 0.13984300
vt 0.45454600 0.12222400
vt 0.49523300 0.19269700
vt 0.50540500 0.17507900
vt 0.44437400 0.21031500
vt 0.46471800 0.21031500
vt 0.40368600 0.17507900
vt 0.41385900 0.19269700
vt 0.19199100 0.26206700
vt 0.17164700 0.26206700
vt 0.23267800 0.29730300
vt 0.22250600 0.27968500
vt 0.22250600 0.35015800
vt 0.23267800 0.33253900
vt 0.15130300 0.33253900
vt 0.18181900 0.35015800
vt 0.14113200 0.27968500
vt 0.13096000 0.29730300
vt 0.91926300 0.26206700
vt 0.89891900 0.26206700
vt 0.35389000 0.29730300
vt 0.64674800 0.27968500
vt 0.04068800 0.35015800
vt 0.05086000 0.33253900
vt 0.57554500 0.33253900
vt 0.30303000 0.35015800
vt 0.86840400 0.27968500
vt 0.85823200 0.29730300
vt 0.73744500 0.26206700
vt 0.71710100 0.26206700
vt 0.77813200 0.29730300
vt 0.76796000 0.27968500
vt 0.76796000 0.35015800
vt 0.77813200 0.33253900
vt 0.69675700 0.33253900
vt 0.72727300 0.35015800
vt 0.68658600 0.27968500
vt 0.67641400 0.29730300
vt 0.55562700 0.26206700
vt 0.53528300 0.26206700
vt 0.59631400 0.29730300
vt 0.58614200 0.27968500
vt 0.58614200 0.35015800
vt 0.59631400 0.33253900
vt 0.51494000 0.33253900
vt 0.54545500 0.35015800
vt 0.50476800 0.27968500
vt 0.49459600 0.29730300
vt 0.37380900 0.26206700
vt 0.35346500 0.26206700
vt 0.41449600 0.29730300
vt 0.40432400 0.27968500
vt 0.40432400 0.35015700
vt 0.41449600 0.33253900
vt 0.33312200 0.33253900
vt 0.36363700 0.35015700
vt 0.32295000 0.27968500
vt 0.31277800 0.29730300
vt 0.24263700 0.41952700
vt 0.18203100 0.41952700
vt 0.42445500 0.41952700
vt 0.36384900 0.41952700
vt 0.60627300 0.41952700
vt 0.54566700 0.41952700
vt 0.78809100 0.41952700
vt 0.72748500 0.41952700
vt 0.36384900 0.41952700
vt 0.60627300 0.41952700
vt 0.63615200 0.05285500
vt 0.75736400 0.05285500
vt 0.63615200 0.05285500
vt 0.57554600 0.05285500
vt 0.51494000 0.05285500
vt 0.51494000 0.05285500
vt 0.39372800 0.05285500
vt 0.45433400 0.05285500
vt 0.27251600 0.05285500
vt 0.39372800 0.05285500
vt 0.28900300 0.16450800
vt 0.31138100 0.16098500
vt 0.29103700 0.19622100
vt 0.27883100 0.18212600
vt 0.25035000 0.19622100
vt 0.25848800 0.18212600
vt 0.23000600 0.16098500
vt 0.24831600 0.16450800
vt 0.25035000 0.12574800
vt 0.25848800 0.14689000
vt 0.62212400 0.14689000
vt 0.79580400 0.12574800
vt 0.25077500 0.16098500
vt 0.34960900 0.16450800
vt 0.23043100 0.19622100
vt 0.33943700 0.18212600
vt 0.18974400 0.19622100
vt 0.31909400 0.18212600
vt 0.77546100 0.16098500
vt 0.61195200 0.16450800
vt 0.80394200 0.14689000
vt 0.79580400 0.12574800
vt 0.85683500 0.16098500
vt 0.83445700 0.16450800
vt 0.83649100 0.19622100
vt 0.82428500 0.18212600
vt 0.79580400 0.19622100
vt 0.80394200 0.18212600
vt 0.77546100 0.16098500
vt 0.79377000 0.16450800
vt 0.62212300 0.14689000
vt 0.61398600 0.12574800
vt 0.67501700 0.16098500
vt 0.65263900 0.16450800
vt 0.65467300 0.19622000
vt 0.64246700 0.18212600
vt 0.61398600 0.19622100
vt 0.62212300 0.18212600
vt 0.59364200 0.16098500
vt 0.61195100 0.16450800
vt 0.43013300 0.16450800
vt 0.41182400 0.16098500
vt 0.43216800 0.12574800
vt 0.44030500 0.14689000
vt 0.49319900 0.16098500
vt 0.47082100 0.16450800
vt 0.47285500 0.19622100
vt 0.46064900 0.18212600
vt 0.43216800 0.19622100
vt 0.44030500 0.18212600
vt 0.17571600 0.29025600
vt 0.16351000 0.27616100
vt 0.20419700 0.27616100
vt 0.19605900 0.29025600
vt 0.22454000 0.31139700
vt 0.20623100 0.30787400
vt 0.20419700 0.34663400
vt 0.19605900 0.32549200
vt 0.14316600 0.31139700
vt 0.16554400 0.30787400
vt 0.66056400 0.29025600
vt 0.76957000 0.27616100
vt 0.81025700 0.27616100
vt 0.68090700 0.29025600
vt 0.22454000 0.31139700
vt 0.38804900 0.30787400
vt 0.20419700 0.34663400
vt 0.37787700 0.32549200
vt 0.74922600 0.31139700
vt 0.65039200 0.30787400
vt 0.72117000 0.29025600
vt 0.70896400 0.27616100
vt 0.74965100 0.27616100
vt 0.74151400 0.29025600
vt 0.76999500 0.31139700
vt 0.75168600 0.30787400
vt 0.74965100 0.34663400
vt 0.74151400 0.32549200
vt 0.68862000 0.31139700
vt 0.71099800 0.30787400
vt 0.53935200 0.29025600
vt 0.52714600 0.27616100
vt 0.56783300 0.27616100
vt 0.55969600 0.29025600
vt 0.58817700 0.31139700
vt 0.56986800 0.30787400
vt 0.56783300 0.34663400
vt 0.55969600 0.32549200
vt 0.50680200 0.31139700
vt 0.52918000 0.30787400
vt 0.35753400 0.29025600
vt 0.34532800 0.27616100
vt 0.38601500 0.27616100
vt 0.37787700 0.29025600
vt 0.40635800 0.31139700
vt 0.38804900 0.30787400
vt 0.38601500 0.34663400
vt 0.37787700 0.32549200
vt 0.32498400 0.31139700
vt 0.34736200 0.30787400
vt 0.36384900 0.41952700
vt 0.24263700 0.41952700
vt 0.36384900 0.41952700
vt 0.42445500 0.41952700
vt 0.48506100 0.41952700
vt 0.48506100 0.41952700
vt 0.60627300 0.41952700
vt 0.54566700 0.41952700
vt 0.72748500 0.41952700
vt 0.60627300 0.41952700
vt 0.48506100 0.41952700
vt 0.66687900 0.41952700
vt 0.54566700 0.41952700
vt 0.42445500 0.41952700
vt 0.33515600 0.29377900
vt 0.35550000 0.32901600
vt 0.39618700 0.32901600
vt 0.39618700 0.29377900
vt 0.51697400 0.29377900
vt 0.53731800 0.32901600
vt 0.57800500 0.32901600
vt 0.57800500 0.29377900
vt 0.69879200 0.29377900
vt 0.71913500 0.32901600
vt 0.75982300 0.32901600
vt 0.75982300 0.29377900
vt 0.75939800 0.29377900
vt 0.47671100 0.32901600
vt 0.21436800 0.32901600
vt 0.51739800 0.29377900
vt 0.15333800 0.29377900
vt 0.17368100 0.32901600
vt 0.21436900 0.32901600
vt 0.21436800 0.29377900
vt 0.42199600 0.17860300
vt 0.45251100 0.19622100
vt 0.48302700 0.17860300
vt 0.46268300 0.14336600
vt 0.60381400 0.14336600
vt 0.60381400 0.17860300
vt 0.63432900 0.19622100
vt 0.66484500 0.17860200
vt 0.78563200 0.14336600
vt 0.78563200 0.17860300
vt 0.81614800 0.19622100
vt 0.84666300 0.17860300
vt 0.78563200 0.14336600
vt 0.48260200 0.17860300
vt 0.21008800 0.19622100
vt 0.24060300 0.17860300
vt 0.28086600 0.14336600
vt 0.24017800 0.14336600
vt 0.24017800 0.17860300
vt 0.27069400 0.19622100
vt 0.51494000 0.05285500
vt 0.33312200 0.05285500
vt 0.45433400 0.05285500
vt 0.57554600 0.05285500
vt 0.30324300 0.41952700
vt 0.36567100 0.27616100
vt 0.54749000 0.27616100
vt 0.72930700 0.27616100
vt 0.78991300 0.27616100
vt 0.18385300 0.27616100
vt 0.42199600 0.14336600
vt 0.64450100 0.14336600
vt 0.82631900 0.14336600
vt 0.52329000 0.14336600
vt 0.30120900 0.17860300
vt 0.69675800 0.05285500
f 1/1/1 74/74/74 194/194/194
f 6/6/6 84/84/84 204/204/204
f 11/11/11 94/94/94 214/214/214
f 16/16/16 104/104/104 224/224/224
f 21/21/21 114/114/114 234/234/234
f 26/26/26 124/124/124 244/244/244
f 31/31/31 134/134/134 254/254/254
f 36/36/36 144/144/144 264/264/264
f 41/41/41 154/154/154 274/274/274
f 46/46/46 164/164/164 284/284/284
f 51/51/51 174/174/174 294/294/294
f 56/56/56 184/184/184 304/304/304
f 2/2/2 76/76/76 195/195/195
f 3/3/3 78/78/78 197/197/197
f 4/4/4 80/80/80 199/199/199
f 5/5/5 82/82/82 201/201/201
f 7/7/7 86/86/86 205/205/205
f 8/8/8 88/88/88 207/207/207
f 9/9/9 90/90/90 209/209/209
f 10/10/10 92/92/92 211/211/211
f 12/12/12 96/96/96 215/215/215
f 13/13/13 98/98/98 217/217/217
f 14/14/14 100/100/100 219/219/219
f 15/15/15 102/102/102 221/221/221
f 17/17/17 106/106/106 225/225/225
f 18/18/18 108/108/108 227/227/227
f 19/19/19 110/110/110 229/229/229
f 20/20/20 112/112/112 231/231/231
f 22/22/22 116/116/116 235/235/235
f 23/23/23 118/118/118 237/237/237
f 24/24/24 120/120/120 239/239/239
f 25/25/25 122/122/122 241/241/241
f 27/27/27 126/126/126 245/245/245
f 28/28/28 128/128/128 247/247/247
f 29/29/29 130/130/130 249/249/249
f 30/30/30 132/132/132 251/251/251
f 32/32/32 136/136/136 255/255/255
f 33/33/33 138/138/138 257/257/257
f 34/34/34 140/140/140 259/259/259
f 35/35/35 142/142/142 261/261/261
f 37/37/37 146/146/146 265/265/265
f 38/38/38 148/148/148 267/267/267
f 39/39/39 150/150/150 269/269/269
f 40/40/40 152/152/152 271/271/271
f 42/42/42 156/156/156 275/275/275
f 43/43/43 158/158/158 277/277/277
f 44/44/44 160/160/160 279/279/279
f 45/45/45 162/162/162 281/281/281
f 47/47/47 166/166/166 285/285/285
f 48/48/48 168/168/168 287/287/287
f 49/49/49 170/170/170 289/289/289
f 50/50/50 172/172/172 291/291/291
f 52/52/52 176/176/176 295/295/295
f 53/53/53 178/178/178 297/297/297
f 54/54/54 180/180/180 299/299/299
f 55/55/55 182/182/182 301/301/301
f 57/57/57 186/186/186 305/305/305
f 58/58/58 188/188/188 307/307/307
f 59/59/59 190/190/190 309/309/309
f 60/60/60 192/192/192 311/311/311
f 312/312/312 303/303/303 72/72/72
f 311/311/311 313/313/313 312/312/312
f 312/312/312 313/313/313 303/303/303
f 313/313/313 304/304/304 303/303/303
f 311/311/311 192/192/192 313/313/313
f 192/192/192 191/191/191 313/313/313
f 313/313/313 191/191/191 304/304/304
f 191/191/191 56/56/56 304/304/304
f 310/310/310 312/312/312 72/72/72
f 309/309/309 314/314/314 310/310/310
f 310/310/310 314/314/314 312/312/312
f 314/314/314 311/311/311 312/312/312
f 309/309/309 190/190/190 314/314/314
f 190/190/190 189/189/189 314/314/314
f 314/314/314 189/189/189 311/311/311
f 189/189/189 60/60/60 311/311/311
f 308/308/308 310/310/310 72/72/72
f 307/307/307 315/315/315 308/308/308
f 308/308/308 315/315/315 310/310/310
f 315/315/315 309/309/309 310/310/310
f 307/307/307 188/188/188 315/315/315
f 188/188/188 187/187/187 315/315/315
f 315/315/315 187/187/187 309/309/309
f 187/187/187 59/59/59 309/309/309
f 306/306/306 308/308/308 72/72/72
f 305/305/305 316/316/316 306/306/306
f 306/306/306 316/316/316 308/308/308
f 316/316/316 307/307/307 308/308/308
f 305/305/305 186/186/186 316/316/316
f 186/186/186 185/185/185 316/316/316
f 316/316/316 185/185/185 307/307/307
f 185/185/185 58/58/58 307/307/307
f 302/302/302 293/293/293 71/71/71
f 301/301/301 317/317/317 302/302/302
f 302/302/302 317/317/317 293/293/293
f 317/317/317 294/294/294 293/293/293
f 301/301/301 182/182/182 317/317/317
f 182/182/182 181/181/181 317/317/317
f 317/317/317 181/181/181 294/294/294
f 181/181/181 51/51/51 294/294/294
f 300/300/300 302/302/302 71/71/71
f 299/299/299 318/318/318 300/300/300
f 300/300/300 318/318/318 302/302/302
f 318/318/318 301/301/301 302/302/302
f 299/299/299 180/180/180 318/318/318
f 180/180/180 179/179/179 318/318/318
f 318/318/318 179/179/179 301/301/301
f 179/179/179 55/55/55 301/301/301
f 298/298/298 300/300/300 71/71/71
f 297/297/297 319/319/319 298/298/298
f 298/298/298 319/319/319 300/300/300
f 319/319/319 299/299/299 300/300/300
f 297/297/297 178/178/178 319/319/319
f 178/178/178 177/177/177 319/319/319
f 319/319/319 177/177/177 299/299/299
f 177/177/177 54/54/54 299/299/299
f 296/296/296 298/298/298 71/71/71
f 295/295/295 320/320/320 296/296/296
f 296/296/296 320/320/320 298/298/298
f 320/320/320 297/297/297 298/298/298
f 295/295/295 176/176/176 320/320/320
f 176/176/176 175/175/175 320/320/320
f 320/320/320 175/175/175 297/297/297
f 175/175/175 53/53/53 297/297/297
f 292/292/292 283/283/283 70/70/70
f 291/291/291 321/321/321 292/292/292
f 292/292/292 321/321/321 283/283/283
f 321/321/321 284/284/284 283/283/283
f 291/291/291 172/172/172 321/321/321
f 172/172/172 171/171/171 321/321/321
f 321/321/321 171/171/171 284/284/284
f 171/171/171 46/46/46 284/284/284
f 290/290/290 292/292/292 70/70/70
f 289/289/289 322/322/322 290/290/290
f 290/290/290 322/322/322 292/292/292
f 322/322/322 291/291/291 292/292/292
f 289/289/289 170/170/170 322/322/322
f 170/170/170 169/169/169 322/322/322
f 322/322/322 169/169/169 291/291/291
f 169/169/169 50/50/50 291/291/291
f 288/288/288 290/290/290 70/70/70
f 287/287/287 323/323/323 288/288/288
f 288/288/288 323/323/323 290/290/290
f 323/323/323 289/289/289 290/290/290
f 287/287/287 168/168/168 323/323/323
f 168/168/168 167/167/167 323/323/323
f 323/323/323 167/167/167 289/289/289
f 167/167/167 49/49/49 289/289/289
f 286/286/286 288/288/288 70/70/70
f 285/285/285 324/324/324 286/286/286
f 286/286/286 324/324/324 288/288/288
f 324/324/324 287/287/287 288/288/288
f 285/285/285 166/166/166 324/324/324
f 166/166/166 165/165/165 324/324/324
f 324/324/324 165/165/165 287/287/287
f 165/165/165 48/48/48 287/287/287
f 282/282/282 273/273/273 69/69/69
f 281/281/281 325/325/325 282/282/282
f 282/282/282 325/325/325 273/273/273
f 325/325/325 274/274/274 273/273/273
f 281/281/281 162/162/162 325/325/325
f 162/162/162 161/161/161 325/325/325
f 325/325/325 161/161/161 274/274/274
f 161/161/161 41/41/41 274/274/274
f 280/280/280 282/282/282 69/69/69
f 279/279/279 326/326/326 280/280/280
f 280/280/280 326/326/326 282/282/282
f 326/326/326 281/281/281 282/282/282
f 279/279/279 160/160/160 326/326/326
f 160/160/160 159/159/159 326/326/326
f 326/326/326 159/159/159 281/281/281
f 159/159/159 45/45/45 281/281/281
f 278/278/278 280/280/280 69/69/69
f 277/277/277 327/327/327 278/278/278
f 278/278/278 327/327/327 280/280/280
f 327/327/327 279/279/279 280/280/280
f 277/277/277 158/158/158 327/327/327
f 158/158/158 157/157/157 327/327/327
f 327/327/327 157/157/157 279/279/279
f 157/157/157 44/44/44 279/279/279
f 276/276/276 278/278/278 69/69/69
f 275/275/275 328/328/328 276/276/276
f 276/276/276 328/328/328 278/278/278
f 328/328/328 277/277/277 278/278/278
f 275/275/275 156/156/156 328/328/328
f 156/156/156 155/155/155 328/328/328
f 328/328/328 155/155/155 277/277/277
f 155/155/155 43/43/43 277/277/277
f 272/272/272 263/263/263 68/68/68
f 271/271/271 329/329/329 272/272/272
f 272/272/272 329/329/329 263/263/263
f 329/329/329 264/264/264 263/263/263
f 271/271/271 152/152/152 329/329/329
f 152/152/152 151/151/151 329/329/329
f 329/329/329 151/151/151 264/264/264
f 151/151/151 36/36/36 264/264/264
f 270/270/270 272/272/272 68/68/68
f 269/269/269 330/330/330 270/270/270
f 270/270/270 330/330/330 272/272/272
f 330/330/330 271/271/271 272/272/272
f 269/269/269 150/150/150 330/330/330
f 150/150/150 149/149/149 330/330/330
f 330/330/330 149/149/149 271/271/271
f 149/149/149 40/40/40 271/271/271
f 268/268/268 270/270/270 68/68/68
f 267/267/267 331/331/331 268/268/268
f 268/268/268 331/331/331 270/270/270
f 331/331/331 269/269/269 270/270/270
f 267/267/267 148/148/148 331/331/331
f 148/148/148 147/147/147 331/331/331
f 331/331/331 147/147/147 269/269/269
f 147/147/147 39/39/39 269/269/269
f 266/266/266 268/268/268 68/68/68
f 265/265/265 332/332/332 266/266/266
f 266/266/266 332/332/332 268/268/268
f 332/332/332 267/267/267 268/268/268
f 265/265/265 146/146/146 332/332/332
f 146/146/146 145/145/145 332/332/332
f 332/332/332 145/145/145 267/267/267
f 145/145/145 38/38/38 267/267/267
f 262/262/262 253/253/253 67/67/67
f 261/261/261 333/333/333 262/262/262
f 262/262/262 333/333/333 253/253/253
f 333/333/333 254/254/254 253/253/253
f 261/261/261 142/142/142 333/333/333
f 142/142/142 141/141/141 333/333/333
f 333/333/333 141/141/141 254/254/254
f 141/141/141 31/31/31 254/254/254
f 260/260/260 262/262/262 67/67/67
f 259/259/259 334/334/334 260/260/260
f 260/260/260 334/334/334 262/262/262
f 334/334/334 261/261/261 262/262/262
f 259/259/259 140/140/140 334/334/334
f 140/140/140 139/139/139 334/334/334
f 334/334/334 139/139/139 261/261/261
f 139/139/139 35/35/35 261/261/261
f 258/258/258 260/260/260 67/67/67
f 257/257/257 335/335/335 258/258/258
f 258/258/258 335/335/335 260/260/260
f 335/335/335 259/259/259 260/260/260
f 257/257/257 138/138/138 335/335/335
f 138/138/138 137/137/137 335/335/335
f 335/335/335 137/137/137 259/259/259
f 137/137/137 34/34/34 259/259/259
f 256/256/256 258/258/258 67/67/67
f 255/255/255 336/336/336 256/256/256
f 256/256/256 336/336/336 258/258/258
f 336/336/336 257/257/257 258/258/258
f 255/255/255 136/136/136 336/336/336
f 136/136/136 135/135/135 336/336/336
f 336/336/336 135/135/135 257/257/257
f 135/135/135 33/33/33 257/257/257
f 252/252/252 243/243/243 66/66/66
f 251/251/251 337/337/337 252/252/252
f 252/252/252 337/337/337 243/243/243
f 337/337/337 244/244/244 243/243/243
f 251/251/251 132/132/132 337/337/337
f 132/132/132 131/131/131 337/337/337
f 337/337/337 131/131/131 244/244/244
f 131/131/131 26/26/26 244/244/244
f 250/250/250 252/252/252 66/66/66
f 249/249/249 338/338/338 250/250/250
f 250/250/250 338/338/338 252/252/252
f 338/338/338 251/251/251 252/252/252
f 249/249/249 130/130/130 338/338/338
f 130/130/130 129/129/129 338/338/338
f 338/338/338 129/129/129 251/251/251
f 129/129/129 30/30/30 251/251/251
f 248/248/248 250/250/250 66/66/66
f 247/247/247 339/339/339 248/248/248
f 248/248/248 339/339/339 250/250/250
f 339/339/339 249/249/249 250/250/250
f 247/247/247 128/128/128 339/339/339
f 128/128/128 127/127/127 339/339/339
f 339/339/339 127/127/127 249/249/249
f 127/127/127 29/29/29 249/249/249
f 246/246/246 248/248/248 66/66/66
f 245/245/245 340/340/340 246/246/246
f 246/246/246 340/340/340 248/248/248
f 340/340/340 247/247/247 248/248/248
f 245/245/245 126/126/126 340/340/340
f 126/126/126 125/125/125 340/340/340
f 340/340/340 125/125/125 247/247/247
f 125/125/125 28/28/28 247/247/247
f 242/242/242 233/233/233 65/65/65
f 241/241/241 341/341/341 242/242/242
f 242/242/242 341/341/341 233/233/233
f 341/341/341 234/234/234 233/233/233
f 241/241/241 122/122/122 341/341/341
f 122/122/122 121/121/121 341/341/341
f 341/341/341 121/121/121 234/234/234
f 121/121/121 21/21/21 234/234/234
f 240/240/240 242/242/242 65/65/65
f 239/239/239 342/342/342 240/240/240
f 240/240/240 342/342/342 242/242/242
f 342/342/342 241/241/241 242/242/242
f 239/239/239 120/120/120 342/342/342
f 120/120/120 119/119/119 342/342/342
f 342/342/342 119/119/119 241/241/241
f 119/119/119 25/25/25 241/241/241
f 238/238/238 240/240/240 65/65/65
f 237/237/237 343/343/343 238/238/238
f 238/238/238 343/343/343 240/240/240
f 343/343/343 239/239/239 240/240/240
f 237/237/237 118/118/118 343/343/343
f 118/118/118 117/117/117 343/343/343
f 343/343/343 117/117/117 239/239/239
f 117/117/117 24/24/24 239/239/239
f 236/236/236 238/238/238 65/65/65
f 235/235/235 344/344/344 236/236/236
f 236/236/236 344/344/344 238/238/238
f 344/344/344 237/237/237 238/238/238
f 235/235/235 116/116/116 344/344/344
f 116/116/116 115/115/115 344/344/344
f 344/344/344 115/115/115 237/237/237
f 115/115/115 23/23/23 237/237/237
f 232/232/232 223/223/223 64/64/64
f 231/231/231 345/345/345 232/232/232
f 232/232/232 345/345/345 223/223/223
f 345/345/345 224/224/224 223/223/223
f 231/231/231 112/112/112 345/345/345
f 112/112/112 111/111/111 345/345/345
f 345/345/345 111/111/111 224/224/224
f 111/111/111 16/16/16 224/224/224
f 230/230/230 232/232/232 64/64/64
f 229/229/229 346/346/346 230/230/230
f 230/230/230 346/346/346 232/232/232
f 346/346/346 231/231/231 232/232/232
f 229/229/229 110/110/110 346/346/346
f 110/110/110 109/109/109 346/346/346
f 346/346/346 109/109/109 231/231/231
f 109/109/109 20/20/20 231/231/231
f 228/228/228 230/230/230 64/64/64
f 227/227/227 347/347/347 228/228/228
f 228/228/228 347/347/347 230/230/230
f 347/347/347 229/229/229 230/230/230
f 227/227/227 108/108/108 347/347/347
f 108/108/108 107/107/107 347/347/347
f 347/347/347 107/107/107 229/229/229
f 107/107/107 19/19/19 229/229/229
f 226/226/226 228/228/228 64/64/64
f 225/225/225 348/348/348 226/226/226
f 226/226/226 348/348/348 228/228/228
f 348/348/348 227/227/227 228/228/228
f 225/225/225 106/106/106 348/348/348
f 106/106/106 105/105/105 348/348/348
f 348/348/348 105/105/105 227/227/227
f 105/105/105 18/18/18 227/227/227
f 222/222/222 213/213/213 63/63/63
f 221/221/221 349/349/349 222/222/222
f 222/222/222 349/349/349 213/213/213
f 349/349/349 214/214/214 213/213/213
f 221/221/221 102/102/102 349/349/349
f 102/102/102 101/101/101 349/349/349
f 349/349/349 101/101/101 214/214/214
f 101/101/101 11/11/11 214/214/214
f 220/220/220 222/222/222 63/63/63
f 219/219/219 350/350/350 220/220/220
f 220/220/220 350/350/350 222/222/222
f 350/350/350 221/221/221 222/222/222
f 219/219/219 100/100/100 350/350/350
f 100/100/100 99/99/99 350/350/350
f 350/350/350 99/99/99 221/221/221
f 99/99/99 15/15/15 221/221/221
f 218/218/218 220/220/220 63/63/63
f 217/217/217 351/351/351 218/218/218
f 218/218/218 351/351/351 220/220/220
f 351/351/351 219/219/219 220/220/220
f 217/217/217 98/98/98 351/351/351
f 98/98/98 97/97/97 351/351/351
f 351/351/351 97/97/97 219/219/219
f 97/97/97 14/14/14 219/219/219
f 216/216/216 218/218/218 63/63/63
f 215/215/215 352/352/352 216/216/216
f 216/216/216 352/352/352 218/218/218
f 352/352/352 217/217/217 218/218/218
f 215/215/215 96/96/96 352/352/352
f 96/96/96 95/95/95 352/352/352
f 352/352/352 95/95/95 217/217/217
f 95/95/95 13/13/13 217/217/217
f 212/212/212 203/203/203 62/62/62
f 211/211/211 353/353/353 212/212/212
f 212/212/212 353/353/353 203/203/203
f 353/353/353 204/204/204 203/203/203
f 211/211/211 92/92/92 353/353/353
f 92/92/92 91/91/91 353/353/353
f 353/353/353 91/91/91 204/204/204
f 91/91/91 6/6/6 204/204/204
f 210/210/210 212/212/212 62/62/62
f 209/209/209 354/354/354 210/210/210
f 210/210/210 354/354/354 212/212/212
f 354/354/354 211/211/211 212/212/212
f 209/209/209 90/90/90 354/354/354
f 90/90/90 89/89/89 354/354/354
f 354/354/354 89/89/89 211/211/211
f 89/89/89 10/10/10 211/211/211
f 208/208/208 210/210/210 62/62/62
f 207/207/207 355/355/355 208/208/208
f 208/208/208 355/355/355 210/210/210
f 355/355/355 209/209/209 210/210/210
f 207/207/207 88/88/88 355/355/355
f 88/88/88 87/87/87 355/355/355
f 355/355/355 87/87/87 209/209/209
f 87/87/87 9/9/9 209/209/209
f 206/206/206 208/208/208 62/62/62
f 205/205/205 356/356/356 206/206/206
f 206/206/206 356/356/356 208/208/208
f 356/356/356 207/207/207 208/208/208
f 205/205/205 86/86/86 356/356/356
f 86/86/86 85/85/85 356/356/356
f 356/356/356 85/85/85 207/207/207
f 85/85/85 8/8/8 207/207/207
f 202/202/202 193/193/193 61/61/61
f 201/201/201 357/357/357 202/202/202
f 202/202/202 357/357/357 193/193/193
f 357/357/357 194/194/194 193/193/193
f 201/201/201 82/82/82 357/357/357
f 82/82/82 81/81/81 357/357/357
f 357/357/357 81/81/81 194/194/194
f 81/81/81 1/1/1 194/194/194
f 200/200/200 202/202/202 61/61/61
f 199/199/199 358/358/358 200/200/200
f 200/200/200 358/358/358 202/202/202
f 358/358/358 201/201/201 202/202/202
f 199/199/199 80/80/80 358/358/358
f 80/80/80 79/79/79 358/358/358
f 358/358/358 79/79/79 201/201/201
f 79/79/79 5/5/5 201/201/201
f 198/198/198 200/200/200 61/61/61
f 197/197/197 359/359/359 198/198/198
f 198/198/198 359/359/359 200/200/200
f 359/359/359 199/199/199 200/200/200
f 197/197/197 78/78/78 359/359/359
f 78/78/78 77/77/77 359/359/359
f 359/359/359 77/77/77 199/199/199
f 77/77/77 4/4/4 199/199/199
f 196/196/196 198/198/198 61/61/61
f 195/195/195 360/360/360 196/196/196
f 196/196/196 360/360/360 198/198/198
f 360/360/360 197/197/197 198/198/198
f 195/195/195 76/76/76 360/360/360
f 76/76/76 75/75/75 360/360/360
f 360/360/360 75/75/75 197/197/197
f 75/75/75 3/3/3 197/197/197
f 303/303/303 306/306/306 72/72/72
f 304/304/304 361/361/361 303/303/303
f 303/303/303 361/361/361 306/306/306
f 361/361/361 305/305/305 306/306/306
f 304/304/304 184/184/184 361/361/361
f 184/184/184 183/183/183 361/361/361
f 361/361/361 183/183/183 305/305/305
f 183/183/183 57/57/57 305/305/305
f 293/293/293 296/296/296 71/71/71
f 294/294/294 362/362/362 293/293/293
f 293/293/293 362/362/362 296/296/296
f 362/362/362 295/295/295 296/296/296
f 294/294/294 174/174/174 362/362/362
f 174/174/174 173/173/173 362/362/362
f 362/362/362 173/173/173 295/295/295
f 173/173/173 52/52/52 295/295/295
f 283/283/283 286/286/286 70/70/70
f 284/284/284 363/363/363 283/283/283
f 283/283/283 363/363/363 286/286/286
f 363/363/363 285/285/285 286/286/286
f 284/284/284 164/164/164 363/363/363
f 164/164/164 163/163/163 363/363/363
f 363/363/363 163/163/163 285/285/285
f 163/163/163 47/47/47 285/285/285
f 273/273/273 276/276/276 69/69/69
f 274/274/274 364/364/364 273/273/273
f 273/273/273 364/364/364 276/276/276
f 364/364/364 275/275/275 276/276/276
f 274/274/274 154/154/154 364/364/364
f 154/154/154 153/153/153 364/364/364
f 364/364/364 153/153/153 275/275/275
f 153/153/153 42/42/42 275/275/275
f 263/263/263 266/266/266 68/68/68
f 264/264/264 365/365/365 263/263/263
f 263/263/263 365/365/365 266/266/266
f 365/365/365 265/265/265 266/266/266
f 264/264/264 144/144/144 365/365/365
f 144/144/144 143/143/143 365/365/365
f 365/365/365 143/143/143 265/265/265
f 143/143/143 37/37/37 265/265/265
f 253/253/253 256/256/256 67/67/67
f 254/254/254 366/366/366 253/253/253
f 253/253/253 366/366/366 256/256/256
f 366/366/366 255/255/255 256/256/256
f 254/254/254 134/134/134 366/366/366
f 134/134/134 133/133/133 366/366/366
f 366/366/366 133/133/133 255/255/255
f 133/133/133 32/32/32 255/255/255
f 243/243/243 246/246/246 66/66/66
f 244/244/244 367/367/367 243/243/243
f 243/243/243 367/367/367 246/246/246
f 367/367/367 245/245/245 246/246/246
f 244/244/244 124/124/124 367/367/367
f 124/124/124 123/123/123 367/367/367
f 367/367/367 123/123/123 245/245/245
f 123/123/123 27/27/27 245/245/245
f 233/233/233 236/236/236 65/65/65
f 234/234/234 368/368/368 233/233/233
f 233/233/233 368/368/368 236/236/236
f 368/368/368 235/235/235 236/236/236
f 234/234/234 114/114/114 368/368/368
f 114/114/114 113/113/113 368/368/368
f 368/368/368 113/113/113 235/235/235
f 113/113/113 22/22/22 235/235/235
f 223/223/223 226/226/226 64/64/64
f 224/224/224 369/369/369 223/223/223
f 223/223/223 369/369/369 226/226/226
f 369/369/369 225/225/225 226/226/226
f 224/224/224 104/104/104 369/369/369
f 104/104/104 103/103/103 369/369/369
f 369/369/369 103/103/103 225/225/225
f 103/103/103 17/17/17 225/225/225
f 213/213/213 216/216/216 63/63/63
f 214/214/214 370/370/370 213/213/213
f 213/213/213 370/370/370 216/216/216
f 370/370/370 215/215/215 216/216/216
f 214/214/214 94/94/94 370/370/370
f 94/94/94 93/93/93 370/370/370
f 370/370/370 93/93/93 215/215/215
f 93/93/93 12/12/12 215/215/215
f 203/203/203 206/206/206 62/62/62
f 204/204/204 371/371/371 203/203/203
f 203/203/203 371/371/371 206/206/206
f 371/371/371 205/205/205 206/206/206
f 204/204/204 84/84/84 371/371/371
f 84/84/84 83/83/83 371/371/371
f 371/371/371 83/83/83 205/205/205
f 83/83/83 7/7/7 205/205/205
f 193/193/193 196/196/196 61/61/61
f 194/194/194 372/372/372 193/193/193
f 193/193/193 372/372/372 196/196/196
f 372/372/372 195/195/195 196/196/196
f 194/194/194 74/74/74 372/372/372
f 74/74/74 73/73/73 372/372/372
f 372/372/372 73/73/73 195/195/195
f 73/73/73 2/2/2 195/195/195

